<?xml version="1.0" encoding="UTF-8" standalone="no"?><svg xmlns="http://www.w3.org/2000/svg" xmlns:xlink="http://www.w3.org/1999/xlink" fill="#182527" height="336.2" preserveAspectRatio="xMidYMid meet" version="1" viewBox="0.0 -2.0 392.7 336.2" width="392.7" zoomAndPan="magnify"><g data-name="Layer 2"><g id="change1_1"><path d="M314.7,319.8v7.67h-9.21V319.8Zm-55,7.67h9V319.8h-9Z" fill="#ffffff"/></g><g id="change2_1"><path d="M102.75,24.82s3.43-16,21.78-18.33c19.12-2.39,25.94,15,25.94,15,17.7-9.2,26.38,6.38,26.38,6.38,15.94-6.78,22.84,6.78,22.84,6.78H83C84.9,24,102.75,24.82,102.75,24.82ZM227.09,277.41,237,283l-3.3,14.24-11.58,1a43,43,0,0,1-15.93,16.9l.17,11.74-14,4.28-6.95-9.87a43.1,43.1,0,0,1-22.1-5.26l-10.2,5.56-10.64-10,5.18-10.14a43.22,43.22,0,0,1-6.76-21.93L130.51,273l3.47-14.2,11.83-.52a43.1,43.1,0,0,1,15.75-16.87l-.13-11.71,14-4.24,6.77,9.68a43,43,0,0,1,22.5,5.26l9.93-6,10.75,9.9-5,10.86a43.36,43.36,0,0,1,6.67,22.22Zm-20.29-6.22a24,24,0,1,0-16,29.9A24,24,0,0,0,206.8,271.19ZM145.21,68h94.61s-7.82-14.85-28-9.38c0,0-5.12-15.54-23.44-15.54a27.14,27.14,0,0,0-24.8,15.54S146.83,57.83,145.21,68Z" fill="#004aad"/></g><g id="change2_2"><path d="M266.09,98.23v94.41a12,12,0,0,1-12,12H98.36a12,12,0,0,1-12-12V98.23a12,12,0,0,1,12-12H254.11A12,12,0,0,1,266.09,98.23Z" fill="#004aad"/></g><g id="change3_1"><path d="M207.17,190.78a32.75,32.75,0,1,1,31.9-25.42l46.2,15.52a.39.39,0,0,1,.22.18.42.42,0,0,1,0,.29l-2.44,7.25a.37.37,0,0,1-.47.23l-46.44-15.6A32.6,32.6,0,0,1,207.17,190.78Zm0-64.72a32,32,0,1,0,28.47,46.54.39.39,0,0,1,.46-.18L282.48,188l2.2-6.53L238.51,166a.37.37,0,0,1-.24-.44,32.58,32.58,0,0,0,.88-7.47A32,32,0,0,0,207.17,126.06Z" fill="inherit"/></g><g id="change3_2"><path d="M263.42,214.29H107.66a12.36,12.36,0,0,1-12.35-12.35V107.53a12.36,12.36,0,0,1,12.35-12.35H263.42a12.36,12.36,0,0,1,12.35,12.35v94.41A12.36,12.36,0,0,1,263.42,214.29ZM107.66,95.93a11.61,11.61,0,0,0-11.6,11.6v94.41a11.61,11.61,0,0,0,11.6,11.6H263.42a11.61,11.61,0,0,0,11.6-11.6V107.53a11.62,11.62,0,0,0-11.6-11.6Z" fill="inherit"/></g><g id="change4_1"><path d="M120.77,160.72h10.79v19H120.77Zm14.66-13.08v32.12h10.79V147.64Z" fill="#ffffff"/></g><g id="change3_3"><path d="M316.24,331.33a1,1,0,0,1-1,1.3H293.72a.58.58,0,0,1-.27-1.09l12.18-6.34c4.11,3.7,9,0,9,0Zm-47.52-6.13s-4.89,3.7-9,0l-12.18,6.34a.58.58,0,0,0,.26,1.09h21.52a1,1,0,0,0,1-1.3Z" fill="inherit"/></g><g id="change4_2"><path d="M319.79,322.67H304l-.07-.43-11.86-79.31,0-.08,5.76-35.34,2.75.67,13.24.27s-.06,1.11-.17,2.94l.37.09,0,.42c-.75,14.23-1.82,35.79-1.67,36.86s6.68,65.95,7.41,73.35Z" fill="#ffffff"/></g><g id="change3_4"><path d="M319.79,323.05H304a.37.37,0,0,1-.37-.32l-.07-.43L291.68,243v-.12l5.78-35.42a.42.42,0,0,1,.16-.26.4.4,0,0,1,.3-.05l2.75.68,13.16.26a.32.32,0,0,1,.26.12.34.34,0,0,1,.1.27L314,211.1l.06,0a.37.37,0,0,1,.29.38l0,.42c-.91,17.15-1.81,35.86-1.68,36.79s7.12,70.41,7.42,73.37l.05.56a.39.39,0,0,1-.09.29A.38.38,0,0,1,319.79,323.05Zm-15.49-.75h15.07v-.15h0c-2.46-24.88-7.18-72.23-7.4-73.3-.18-1.22,1-24.71,1.66-37v-.11h-.06a.38.38,0,0,1-.28-.39l.14-2.55-12.85-.26-2.43-.59-5.7,34.94Z" fill="inherit"/></g><g id="change4_3"><path d="M312.8,207.83l-21.48,39-19.58,75.84H255l.09-.59,12.13-75.63a20.37,20.37,0,0,1,1.75-5.6l16.17-34Z" fill="#ffffff"/></g><g id="change3_5"><path d="M271.74,323.05H255a.39.39,0,0,1-.29-.13.37.37,0,0,1-.08-.3l12.22-76.23a21.17,21.17,0,0,1,1.78-5.71l16.18-34a.38.38,0,0,1,.35-.21l27.7.95a.38.38,0,0,1,.32.56l-21.46,39-19.57,75.8A.38.38,0,0,1,271.74,323.05Zm-16.35-.75h16.06L291,246.73a.11.11,0,0,1,0-.08l21.19-38.47-26.85-.93L269.25,241a20.32,20.32,0,0,0-1.71,5.5Z" fill="inherit"/></g><g id="change1_2"><path d="M289.49,162.13l-9.65,3.69-1.53-8.43a6.06,6.06,0,0,1-5.57-.56c-4.84-3.36-4.75-14.19-4.74-14.65v-.36l14.59-5.13,4,12.52Z" fill="#ffffff"/></g><g id="change3_6"><path d="M286.86,138.87c-.77-4.58-5.86-6.11-8.67-4.84a22.33,22.33,0,0,1-6.62,1.53c-5.61-2-7.14.77-7.14.77-2,4.58-1,7.39,1.28,8.41s2.8-2,5.35-.77,2.55,4.59,2.29,6.37-3.57,3.57-2.29,5.35,4.59,3.31,6.62,2,1.79-5.61,1.79-5.61l5.09-1C290.17,149.58,287.62,143.46,286.86,138.87Zm-10,12a.37.37,0,0,1-.68-.12l-.91-4a.73.73,0,0,1,.64-.89C280,145.47,277.94,149.25,276.9,150.89Z" fill="inherit"/></g><g id="change1_3"><path d="M274.18,190.1l-7.69,11.32a2.79,2.79,0,0,1-2.22,1.22h-.09a2.74,2.74,0,0,1-2.19-1.08l-14.67-18.95a54.38,54.38,0,0,1-4.13-7l-.43-1.15,1.93.87.91-4.83.64.43a4,4,0,0,1,1.5,3.76v.92a6.12,6.12,0,0,1,1.56,1.64c.63.14,2,.82,2.73,4l10,8.81,2.53-7.07Z" fill="#ffffff"/></g><g id="change1_4"><path d="M285.16,188.55l-2.07,7.7-20.17-13.1a4,4,0,0,0-2.16-.47l-.1,0c-2.41.24-3.25-1.35-3.36-2.23l-.06-.5.5-.07c1.53-.21,1.89-.27,2.37-2.9a5.78,5.78,0,0,0-.68-4.19l-.3-.43.43-.29a1.9,1.9,0,0,1,1.9-.12,1.93,1.93,0,0,1,1.63.49,1.66,1.66,0,0,1,1.28.51,1.77,1.77,0,0,1,1.51.79l0,.05a19,19,0,0,1,1,5.26Z" fill="#ffffff"/></g><g id="change2_3"><path d="M275.26,220.29s4.33-26.25,2.3-33.38l-3.95,6.49-10.2-8.66,8.41-16.31a12.68,12.68,0,0,1,6.37-5.09l12.74-4.85s8.92,1.79,14.27,15.8,13,39.44,13,39.44S292.84,221.81,275.26,220.29Z" fill="#004aad"/></g><g id="change4_4"><path d="M232.84,158.05a25.68,25.68,0,1,1-25.67-25.67A25.67,25.67,0,0,1,232.84,158.05Z" fill="#ffffff"/></g><g id="change2_4"><path d="M209.94,155.55a8.82,8.82,0,0,0-.31-2.31l1.58-1.8-1.49-2.53-2.26.58a8.61,8.61,0,0,0-4-2.32l-.74-2.26h-2.93l-.66,2.26a8.68,8.68,0,0,0-4,2.33l-2.31-.59-1.49,2.53,1.63,1.85a8.44,8.44,0,0,0-.3,2.26,8.73,8.73,0,0,0,.32,2.36l-1.58,1.64,1.46,2.55,2.29-.47a8.66,8.66,0,0,0,3.94,2.29l.76,2.31h2.94l.65-2.27a8.75,8.75,0,0,0,4.05-2.32l2.28.47,1.47-2.55-1.59-1.65A8.61,8.61,0,0,0,209.94,155.55Zm-8.68,4.8a4.82,4.82,0,1,1,4.82-4.82A4.82,4.82,0,0,1,201.26,160.35Zm20.14,4.4a4.86,4.86,0,0,0-.17-1.27l.87-1-.82-1.39-1.25.32a4.59,4.59,0,0,0-2.21-1.27l-.4-1.24h-1.61l-.37,1.24a4.75,4.75,0,0,0-2.2,1.28L212,161.1l-.82,1.39.9,1a4.64,4.64,0,0,0-.17,1.24,5.1,5.1,0,0,0,.18,1.3l-.87.9.8,1.4,1.26-.26a4.71,4.71,0,0,0,2.17,1.26l.42,1.27h1.61l.36-1.24a4.77,4.77,0,0,0,2.22-1.28l1.26.26.8-1.4-.87-.91A4.57,4.57,0,0,0,221.4,164.75Zm-4.77,2.64a2.65,2.65,0,1,1,2.64-2.65A2.65,2.65,0,0,1,216.63,167.39Zm3.77-14.64a3.52,3.52,0,0,0-.14-1l.68-.77-.64-1.07-1,.24a3.63,3.63,0,0,0-1.7-1l-.31-1h-1.25l-.28,1a3.65,3.65,0,0,0-1.7,1l-1-.25-.63,1.07.69.79a3.71,3.71,0,0,0-.13,1,3.59,3.59,0,0,0,.14,1l-.67.7.62,1.08,1-.2a3.76,3.76,0,0,0,1.67,1l.32,1h1.25l.28-1a3.68,3.68,0,0,0,1.71-1l1,.2.62-1.08-.67-.7A3.59,3.59,0,0,0,220.4,152.75Zm-3.69,2a2,2,0,1,1,2-2A2,2,0,0,1,216.71,154.78Z" fill="#004aad"/></g><g id="change3_7"><path d="M377.61,332.64H352.48a.67.67,0,0,1-.31-1.27l13.45-7-.62-7.72h11.58l.71,8.83,1.49,5.65A1.21,1.21,0,0,1,377.61,332.64Zm-29.64-7,1-9H337.35l-.81,7.57-13.74,7.16a.67.67,0,0,0,.31,1.27h25.13a1.21,1.21,0,0,0,1.17-1.52Z" fill="inherit"/></g><g id="change2_5"><path d="M382.38,202.87l-6.32,41.85,4.34,74.34h-18l-.06-.47-6.8-50.87-4.84,51.47H331.85l2.65-78.27a20.71,20.71,0,0,1,.44-3.6l9.57-45.1,10,1.35.34-5.8,14.69,7.83,4.52.62-.48,1.54,8.89,4.73Z" fill="#004aad"/></g><g id="change3_8"><path d="M361.39,114.45C357.26,112.39,358,109,358,109c.78-5.94,7.76-2.58,7.76-2.58,4.91-4.14,6.2,2.33,6.2,2.33,9.31-.26,6.21,8.27,6.21,8.27,6.46,10.34-8.28,12.15-8.28,12.15Z" fill="inherit"/></g><g id="change4_5"><path d="M359.47,141.13l1.25-8.75h-.07A11.82,11.82,0,0,1,356,130.7a3.07,3.07,0,0,1-1.55-2c-1.3-4.84,5.45-15.61,5.74-16.07l.43-.68.47.66a7.38,7.38,0,0,0,5.54,2.62,3.5,3.5,0,0,1,2.65,1.32,6.7,6.7,0,0,1,1.06,4.24,4.2,4.2,0,0,1,1.68-.39h.15l.12.07a3.14,3.14,0,0,1,1.84,2.63c0,2-2.36,3.89-3.3,4.54l3.44,12.94Z" fill="#ffffff"/></g><g id="change3_9"><path d="M359.47,141.5a.36.36,0,0,1-.27-.12.38.38,0,0,1-.1-.3l1.2-8.35a13.68,13.68,0,0,1-4.5-1.7,3.43,3.43,0,0,1-1.74-2.25c-1.31-4.9,5.05-15.21,5.78-16.37l.44-.68a.37.37,0,0,1,.3-.18.35.35,0,0,1,.32.17l.46.66a7,7,0,0,0,5.26,2.45,3.85,3.85,0,0,1,2.92,1.47,6.52,6.52,0,0,1,1.15,3.92A4.76,4.76,0,0,1,372,120h.15a.45.45,0,0,1,.19,0l.12.08a3.5,3.5,0,0,1,2,3c0,2.06-2.11,3.88-3.25,4.69l3.37,12.7a.35.35,0,0,1-.06.31.39.39,0,0,1-.29.16l-14.76.56Zm1.14-28.89-.13.2c-.29.46-7,11.11-5.7,15.77a2.69,2.69,0,0,0,1.37,1.79,11.63,11.63,0,0,0,4.5,1.63.46.46,0,0,1,.32.13.43.43,0,0,1,.13.3l-1.19,8.31,13.84-.54-3.31-12.49a.37.37,0,0,1,.15-.4c.74-.51,3.16-2.33,3.14-4.22a2.77,2.77,0,0,0-1.66-2.31l-.08,0a4,4,0,0,0-1.52.36.36.36,0,0,1-.36,0,.35.35,0,0,1-.17-.32,6.29,6.29,0,0,0-1-4,3.17,3.17,0,0,0-2.38-1.18,7.86,7.86,0,0,1-5.82-2.77Z" fill="inherit"/></g><g id="change4_6"><path d="M372.9,136.56l13.79,8.38a9.54,9.54,0,0,1,4,11.34l-2.68,8.64-3.78,3.79-2,42.95-41.7-7.89,2.33-16.28.26-8.15-5.26-20.2,5.43-14.44a9.91,9.91,0,0,1,7.15-6.19l9-1.95S364.62,144.05,372.9,136.56Z" fill="#ffffff"/></g><g id="change3_10"><path d="M382.28,212h-.07l-41.7-7.89a.36.36,0,0,1-.3-.42l2.33-16.29.25-8-5.24-20.15a.44.44,0,0,1,0-.23L343,144.57a10.21,10.21,0,0,1,7.42-6.42l9-2a.38.38,0,0,1,.39.15,8.09,8.09,0,0,0,5.21,3.13c2.45.28,5-.79,7.67-3.19a.38.38,0,0,1,.45,0l13.79,8.38a10,10,0,0,1,4.21,11.79L388.41,165a.46.46,0,0,1-.09.15l-3.68,3.68-2,42.81a.38.38,0,0,1-.14.28A.4.4,0,0,1,382.28,212ZM341,203.47l40.92,7.74,2-42.52a.36.36,0,0,1,.11-.25l3.71-3.72,2.66-8.55a9.22,9.22,0,0,0-3.88-10.91L372.94,137c-2.75,2.42-5.46,3.49-8.06,3.2A8.66,8.66,0,0,1,359.3,137l-8.73,1.9a9.46,9.46,0,0,0-6.88,6l-5.38,14.33,5.22,20.09a.37.37,0,0,1,0,.11l-.26,8.14Z" fill="inherit"/></g><g id="change4_7"><path d="M378.2,185.47a6.8,6.8,0,0,1-6.21,3.91l-.44,0a6.79,6.79,0,0,1-6.13-4.67L349,136.49v-.11c.09-.91.89-8.88,3.94-10.27l.3-.13.26.21c1.1.89,4.27,3.24,5.87,3.49.57-.07,3.91-.43,5.74.88l.76.55-6.07,2.72a4.93,4.93,0,0,0-2.58,3.3l15.47,33.34L376.72,159l1.58.87c.63.37,5.93,2.92,9.85,4.68Z" fill="#ffffff"/></g><g id="change3_11"><path d="M372,189.75h-.46a7.18,7.18,0,0,1-6.47-4.93L348.6,136.62a.3.3,0,0,1,0-.16v-.12c.14-1.51,1-9.13,4.15-10.57l.3-.14a.41.41,0,0,1,.4.05l.26.21c1.46,1.2,4.27,3.16,5.63,3.41.78-.09,4.07-.39,5.95,1l.77.54a.36.36,0,0,1,.15.34.36.36,0,0,1-.22.31l-6.07,2.73a4.46,4.46,0,0,0-2.33,2.92l15,32.38,3.75-10.6a.41.41,0,0,1,.22-.23.34.34,0,0,1,.31,0l1.59.86c.6.35,5.86,2.89,9.82,4.67a.41.41,0,0,1,.2.21.44.44,0,0,1,0,.3l-10,20.91A7.21,7.21,0,0,1,372,189.75Zm-22.66-53.3,16.44,48.12a6.55,6.55,0,0,0,12.09.73l9.78-20.56c-3.85-1.74-8.89-4.17-9.53-4.55l-1.19-.65L373,170.6a.39.39,0,0,1-.34.25.42.42,0,0,1-.36-.22l-15.47-33.34a.39.39,0,0,1,0-.28,5.3,5.3,0,0,1,2.8-3.53l5.45-2.45-.23-.16c-1.74-1.25-5.1-.87-5.48-.82h-.1c-2-.32-6-3.54-6-3.57l-.08-.07-.09,0c-2.31,1.05-3.42,6.75-3.71,10Z" fill="inherit"/></g><g id="change4_8"><path d="M377.22,188.6A2,2,0,0,1,377,190a3.4,3.4,0,0,1-1.71,1.36,3.37,3.37,0,0,1-3.55,2.06l-.65,0a16.72,16.72,0,0,1-7.32-2l-26.37-8.65a6.85,6.85,0,0,1-4.46-8.54L338.26,158l10.95,2.72-3.73,11.91,21.79,12.16,4.48,1,5.54-.83.13.45A4.46,4.46,0,0,1,377.22,188.6Z" fill="#ffffff"/></g><g id="change3_12"><path d="M371.08,193.85a17.08,17.08,0,0,1-7.5-2l-26.31-8.62a7.23,7.23,0,0,1-4.7-9l5.33-16.3a.38.38,0,0,1,.45-.25l10.95,2.72a.4.4,0,0,1,.24.18.39.39,0,0,1,0,.3l-3.64,11.62,21.48,12,4.36,1,5.47-.83a.38.38,0,0,1,.41.27l.13.46h0a4.89,4.89,0,0,1-.17,3.35,2.48,2.48,0,0,1-.29,1.58,3.63,3.63,0,0,1-1.75,1.45,3.77,3.77,0,0,1-3.88,2.15A5.63,5.63,0,0,1,371.08,193.85Zm-32.57-35.42-5.23,16a6.51,6.51,0,0,0,4.23,8.08l26.37,8.65a16.15,16.15,0,0,0,7.82,2,3,3,0,0,0,3.22-1.8.39.39,0,0,1,.22-.23,3,3,0,0,0,1.53-1.19,1.73,1.73,0,0,0,.18-1.19.34.34,0,0,1,0-.24,4.1,4.1,0,0,0,.18-2.93l0-.13-5.21.78h-.14l-4.48-1-.1,0L345.3,173a.37.37,0,0,1-.17-.44l3.6-11.54Z" fill="inherit"/></g><g id="change4_9"><path d="M152.75,134.6h9.77v44.65h-9.77Zm10.08-12.75-.12-6.24h-6.24v1.58h3.58l-19.14,19.63-4.73-4.62L118,150.73l1.13,1.1,17.1-17.4,4.73,4.62,20.24-20.76.07,3.59Zm71-15a4,4,0,1,0,4,4A4,4,0,0,0,233.8,106.88Zm-16.38,0a4,4,0,1,0,4,4A4,4,0,0,0,217.42,106.88Zm-16.38,0a4,4,0,1,0,4,4A4,4,0,0,0,201,106.88Z" fill="#ffffff"/></g><g id="change5_1"><path d="M53.22,193.27a13,13,0,0,1-3.47-9.35c.73-10.28,15-8,17.82-2.83,2,3.63,2.64,9.12,1.18,13-1.35,3.62-6.44,6-9.94,3.83.79,4.58,1.31,9.22,2,13.82H49.25Z" fill="#ccf4e5"/></g><g id="change3_13"><path d="M72,177a5.16,5.16,0,0,1-1.12,1.21,2.34,2.34,0,0,1,.8.66,1.48,1.48,0,0,1,.2.94,4.14,4.14,0,0,1-.35,1.2,3.1,3.1,0,0,1-.68.92,1,1,0,0,1,.63.5,2.8,2.8,0,0,1,.13.41c0,.17.1.33.14.51a1.31,1.31,0,0,1-.11.85,2.25,2.25,0,0,1-1,.85,2.94,2.94,0,0,1-1.78-.14,5.39,5.39,0,0,1-.71-1.56,9.66,9.66,0,0,0-1.06-1.88,5.56,5.56,0,0,0-1.59-1.58c-.13-.08-.34-.31-.49-.22s-.16.22-.22.31a2,2,0,0,1-.28.3,4.26,4.26,0,0,1-1.6.88,9.54,9.54,0,0,0-1.72.7,2.51,2.51,0,0,0-1,1.3c-.2.53-.3,1.09-.45,1.63a10.28,10.28,0,0,1-.83,2,2.79,2.79,0,0,1-.61.8c-.15.13-.48.39-.69.24s-.08-.19-.11-.29-.93-1.91-1.72-2.08a7,7,0,0,0-3.26.17,3,3,0,0,0-1.11,3.69,4.15,4.15,0,0,0,.91,1.69,1.67,1.67,0,0,0,.72.51,2.08,2.08,0,0,0,.93.12,1.91,1.91,0,0,0-.06.48,4.91,4.91,0,0,1,0,.55,2.78,2.78,0,0,1-.21,1,1.8,1.8,0,0,0-.2.51c0,.14,0,.28,0,.41a2.23,2.23,0,0,1-.23.76,1.73,1.73,0,0,1-2.76.36,4.08,4.08,0,0,1-2.6,2.15,2.72,2.72,0,0,1-2.86-.58,3.35,3.35,0,0,1-.82.57,3.66,3.66,0,0,1-3.69-.11,2.9,2.9,0,0,1-1.18-1.59,4.78,4.78,0,0,1-.06-2.16c0-.09.06-.23,0-.3s-.13-.09-.2-.12a2.55,2.55,0,0,1-.39-.24,2.08,2.08,0,0,1-.59-.7,3.45,3.45,0,0,1-.24-2.1,7.73,7.73,0,0,1,.26-1.08c.06-.17.12-.35.19-.52a4.4,4.4,0,0,0,.21-.5c0-.12,0-.06,0-.14l-.1-.09a1.29,1.29,0,0,1-.16-.17,3.27,3.27,0,0,1-.25-.36,2.82,2.82,0,0,1-.28-.8,5,5,0,0,1,.06-1.84,4.45,4.45,0,0,1,.34-1.07,3,3,0,0,0,.16-.31c0-.09,0-.1,0-.19a2.47,2.47,0,0,1-.23-.46,4.58,4.58,0,0,1-.07-3.18,3.91,3.91,0,0,1,1.91-2.29,3.36,3.36,0,0,1,.75-.27,3.25,3.25,0,0,1,.43-.08s.15,0,.18,0,0-.16,0-.19a3.3,3.3,0,0,1,.73-1.56,3.34,3.34,0,0,1,1.42-.94c.11,0,.14,0,.2-.13a2.4,2.4,0,0,0,.11-.23,4.73,4.73,0,0,1,.23-.45,4.4,4.4,0,0,1,.64-.85,4.35,4.35,0,0,1,1.7-1.21,1.81,1.81,0,0,1,1.08,0,3.24,3.24,0,0,1,.77.34c0-.08.14-.14.19-.2a4,4,0,0,0,.24-.33,2.44,2.44,0,0,1,.67-.61,4.73,4.73,0,0,1,1.81-.71,3.63,3.63,0,0,1,1.85.17,2.22,2.22,0,0,0,.45.2c.11,0,.34-.17.44-.22a3.79,3.79,0,0,1,.93-.26,2.43,2.43,0,0,1,1.53.35c.12.07.11,0,.19-.07l.16-.18.28-.28a6.71,6.71,0,0,1,.58-.48,5.21,5.21,0,0,1,3.21-.77,4.54,4.54,0,0,1,2.85.87c.06.05.23.25.31.26s.31-.17.38-.2a7.19,7.19,0,0,1,.76-.32,3.52,3.52,0,0,1,1.54-.21,4.27,4.27,0,0,1,2.58,1.21,3.51,3.51,0,0,1,.85,1.27,2.35,2.35,0,0,1,.13.43.58.58,0,0,0,0,.19c0,.05.06,0,.14,0a2.32,2.32,0,0,1,.64.06,2.5,2.5,0,0,1,1.75,1.77A3.8,3.8,0,0,1,72,177Z" fill="inherit" fill-rule="evenodd"/></g><g id="change4_10"><path d="M.37,279.5v44.19a7.69,7.69,0,0,0,7.69,7.68H63.3A7.68,7.68,0,0,0,71,323.69V279.5a7.68,7.68,0,0,0-7.68-7.69H8.06A7.69,7.69,0,0,0,.37,279.5Z" fill="#ffffff" fill-rule="evenodd"/></g><g id="change3_14"><path d="M63.3,331.75H8.06A8.07,8.07,0,0,1,0,323.69V279.5a8.07,8.07,0,0,1,8.06-8.06H63.3a8.07,8.07,0,0,1,8.06,8.06v44.19A8.07,8.07,0,0,1,63.3,331.75ZM8.06,272.19A7.32,7.32,0,0,0,.75,279.5v44.19A7.32,7.32,0,0,0,8.06,331H63.3a7.32,7.32,0,0,0,7.31-7.31V279.5a7.32,7.32,0,0,0-7.31-7.31Z" fill="inherit"/></g><g id="change5_2"><path d="M120.18,328.06c-5.11-31.34-9.37-52.09-11.81-58.41-1.61-4.17-13.8-3.68-12.4,4.71.59,3.52,2.91,12.95,6,23.67,1.79,6.25,6.24,18.12,12.4,31.74Zm-75.46-35.3c2.16-.29,27.4-2.94,45.2-5.5,7.15-1,3.3-14.42-4.12-13-2.5.48-5.15,1-7.89,1.58-9.54,2-29.31,9-35,11.19C39.4,288.42,41.69,293.18,44.72,292.76Z" fill="#ccf4e5" fill-rule="evenodd"/></g><g id="change4_11"><path d="M90.36,270.57,59.81,255v-3.38h3.64q44.31,11.3,45.29,14.47a.25.25,0,0,1,0,.07l0,.06c5.85,8.05,9.36,47.37,10.51,50.32l-11.22,1.67c-4.29-15.92-18-27-17.66-46.07A6.19,6.19,0,0,1,90.36,270.57Z" fill="#ffffff" fill-rule="evenodd"/></g><g id="change3_15"><path d="M108.1,318.6a.37.37,0,0,1-.36-.27c-1.69-6.25-4.91-11.88-8-17.32-4.85-8.46-9.86-17.21-9.65-28.82a6.63,6.63,0,0,1-.09-1.4L59.64,255.36a.4.4,0,0,1-.2-.34v-3.38a.38.38,0,0,1,.37-.38h3.64c40,10.18,45.21,13.29,45.65,14.74,4.26,5.86,7.25,27.7,9,40.74.68,5,1.22,8.89,1.53,9.68a.4.4,0,0,1,0,.32.4.4,0,0,1-.27.19l-11.22,1.67ZM60.19,254.79l30.34,15.45a.37.37,0,0,1,.2.36,5.91,5.91,0,0,0,.08,1.5v.07c-.21,11.42,4.75,20.09,9.55,28.47,3.09,5.39,6.28,11,8,17.17l10.47-1.56c-.34-1.34-.79-4.67-1.44-9.41-1.78-13-4.76-34.69-8.9-40.38a1.62,1.62,0,0,1-.1-.18c-.36-1.17-6.66-4.5-45.05-14.28H60.19Z" fill="inherit"/></g><g id="change4_12"><path d="M62.35,279.8c-2.79-.56-5.37-1.05-7.57-1.44-14.22-2.5-18.37-10.11-15.92-26.72H65.07c4.28,1.23,26.53,10.56,38.07,15.52,7.64,3.28,5.23,15.12.91,18.21a.44.44,0,0,1-.24.37c-23.28,9.65-41.69,4.59-47.84,6.2l-2.84-9Z" fill="#ffffff" fill-rule="evenodd"/></g><g id="change3_16"><path d="M56,292.32a.38.38,0,0,1-.36-.26l-2.84-9a.38.38,0,0,1,.23-.47l7.92-2.71c-2.54-.5-4.54-.88-6.2-1.17-14.2-2.49-18.74-10.1-16.23-27.15a.38.38,0,0,1,.37-.32H65.07l.1,0c4.5,1.29,27.62,11,38.12,15.53a8.65,8.65,0,0,1,5.11,7.43c.46,4.29-1.34,9.33-4,11.34a.76.76,0,0,1-.43.51c-16.48,6.83-30.35,6.32-39.53,6-3.68-.13-6.59-.24-8.35.22Zm-2.38-9.12,2.63,8.3a39.29,39.29,0,0,1,8.23-.17c9.11.33,22.89.83,39.21-5.94a.65.65,0,0,1,.17-.33c2.55-1.81,4.26-6.63,3.83-10.74A7.92,7.92,0,0,0,103,267.5C90.09,262,69.16,253.23,65,252H39.19c-2.37,16.51,1.89,23.56,15.66,26,2,.34,4.37.8,7.57,1.45a.38.38,0,0,1,.31.34.39.39,0,0,1-.26.38Z" fill="inherit"/></g><g id="change3_17"><path d="M45,285.59a1,1,0,0,1,1,.94h0a7.72,7.72,0,0,0,.52,3,8.8,8.8,0,0,0,2.38,2.65l2.12-.14h0a.48.48,0,0,1,.49.47l.48,13.77c.3,1,.71,2.18,1.2,3.62s-.45,2.36-2.85,2.75L38.41,288.33a24,24,0,0,1,3.22-2.05,10.54,10.54,0,0,1,3.25-.69Zm66.58,41.65a10.53,10.53,0,0,0-.8,3.22,23.77,23.77,0,0,0,.43,3.79h27.09q1.06-3.48-1.22-3.77c-1.51-.18-2.77-.35-3.78-.5l-12.59-5.61a.48.48,0,0,0-.63.24h0l-.81,2a8.67,8.67,0,0,1-3.42,1,7.76,7.76,0,0,1-3-.87h0a1,1,0,0,0-1.27.48Z" fill="inherit" fill-rule="evenodd"/></g><g id="change5_3"><path d="M83.18,251.83l14.14,8.34q5.33,8.38,6.26,7.25c.92-1.14-.56-2.48,0-3.35s3.34-.37,6,.22,2.06-.73,1.49-1.41a41.31,41.31,0,0,0-9.73-5.6L87.69,244ZM21.1,276.57c-.69,1.4-5.78,5.64-9.32,8.06-1.41,1-.83,2.22-.29,2.55,4.36,2.69,7.23-.49,11-2.25,4.13-1.92,3.78,3.51,7.06,2-1-2.25-3.36-6.45-2.25-9.2q.73-1.83,10-31.85l-10,0Q22.5,273.72,21.1,276.57Z" data-name="Skin" fill="#ccf4e5" fill-rule="evenodd"/></g><g id="change4_13"><path d="M55.83,203.76l4.15-.71q10.73,26.8,37.45,48.7L84,268.1C66.15,247.32,55.17,225.87,55.83,203.76Z" fill="#ffffff" fill-rule="evenodd"/></g><g id="change3_18"><path d="M84,268.48a.39.39,0,0,1-.29-.13c-19.6-22.88-28.84-44-28.23-64.6a.38.38,0,0,1,.31-.35l4.16-.72a.38.38,0,0,1,.41.23C67.42,220.63,80,237,97.67,251.46a.35.35,0,0,1,.14.25.33.33,0,0,1-.09.27L84.26,268.34A.44.44,0,0,1,84,268.48Zm-27.78-64.4c-.5,20.2,8.59,41,27.77,63.44L96.9,251.8c-17.54-14.44-30-30.69-37.16-48.33Z" fill="inherit"/></g><g id="change2_6"><path d="M50.69,201.2l11.16,1.67q0,21.84,12.85,53.09h-37C39.45,232.67,41.93,215.3,50.69,201.2Z" fill="#004aad" fill-rule="evenodd"/></g><g id="change4_14"><path d="M57.87,209.07q.42,14.09,5,56.79H38.62c.06,2,.17,3.95.31,5.95h-18q4-45.63,29.54-70.61h0l6.43.34Z" fill="#ffffff" fill-rule="evenodd"/></g><g id="change3_19"><path d="M38.93,272.19h-18a.37.37,0,0,1-.28-.13.35.35,0,0,1-.09-.28c2.69-30.37,12.66-54.21,29.65-70.84a.33.33,0,0,1,.27-.11h0l6.43.34a.37.37,0,0,1,.35.33l1,7.52c.29,9.38,2,28.48,5,56.8a.4.4,0,0,1-.1.29.36.36,0,0,1-.27.12H39c.06,1.82.16,3.68.3,5.55a.38.38,0,0,1-.1.29A.4.4,0,0,1,38.93,272.19Zm-17.61-.75H38.53c-.13-1.88-.23-3.75-.28-5.57a.34.34,0,0,1,.1-.27.36.36,0,0,1,.27-.12H62.45c-3-28.11-4.67-47.08-5-56.4l-.93-7.18-6-.31C33.89,218,24,241.51,21.32,271.44Z" fill="inherit"/></g><g id="change3_20"><path d="M355.52,268.09a.37.37,0,0,1-.37-.35c-.52-10.81-1.36-27.17-1.56-28-.29-1.15,3.91-16.4,4.75-19.44a.37.37,0,0,1,.72.2c-1.9,6.88-4.88,18.14-4.74,19.07.28,1.11,1.44,25.34,1.58,28.1a.37.37,0,0,1-.36.39Z" fill="inherit"/></g><g id="change3_21"><path d="M131.56,180.08H120.77a.37.37,0,0,1-.37-.38v-19a.37.37,0,0,1,.37-.38h10.79a.38.38,0,0,1,.38.38v19A.38.38,0,0,1,131.56,180.08Zm-10.41-.75h10V161.09h-10Zm25.07.8H135.43a.38.38,0,0,1-.38-.37V147.64a.38.38,0,0,1,.38-.38h10.79a.38.38,0,0,1,.37.38v32.12A.38.38,0,0,1,146.22,180.13Zm-10.42-.75h10V148h-10Z" fill="inherit"/></g><g id="change3_22"><path d="M73.48,75.3a18.63,18.63,0,0,0-2.2-4.5l2-4.74L68.54,61.9l-4.22,2.7a18.59,18.59,0,0,0-9.77-2l-3-4.1-6,2,.18,5.06A18.61,18.61,0,0,0,39.09,73l-5.1.36-1.34,6.17,4.57,2.68A18.5,18.5,0,0,0,38.14,87a18.74,18.74,0,0,0,2.24,4.58L38.26,96l4.7,4.21,4.35-2.52a18.56,18.56,0,0,0,9.6,2L60,103.91l6-2-.2-5.07a18.59,18.59,0,0,0,6.7-7.47l5-.57,1.26-6.18-4.35-2.3A18.47,18.47,0,0,0,73.48,75.3ZM59,90.94a10.36,10.36,0,1,1,6.58-13.08A10.36,10.36,0,0,1,59,90.94ZM196.45,29.09H79.74a.36.36,0,0,1-.29-.13.38.38,0,0,1-.08-.31C80.18,24.17,84,21,90.25,19.5a37.59,37.59,0,0,1,9-.95,25.52,25.52,0,0,1,22-18.32c17.6-2.2,25,12.27,26.17,14.82,16.23-8.2,25,4.32,26.35,6.42,15.86-6.55,23,6.94,23,7.08a.36.36,0,0,1-.33.54ZM80.2,28.34H195.81c-1.49-2.46-8.27-11.92-22.06-6.06a.36.36,0,0,1-.47-.16,20.47,20.47,0,0,0-6.45-6.52c-5.69-3.55-12.22-3.45-19.43.3a.47.47,0,0,1-.31,0,.38.38,0,0,1-.21-.22c-.07-.17-6.95-17-25.55-14.73-9.33,1.16-14.66,6-17.49,9.85a24.09,24.09,0,0,0-4,8.19.35.35,0,0,1-.38.29C99.32,19.29,82.46,18.68,80.2,28.34Zm230.61,78.83-.12,0L301,104a.38.38,0,0,1-.25-.36V95.41a30.38,30.38,0,0,1-10.34-11.72l-7.84-.91a.37.37,0,0,1-.32-.3l-2-10a.38.38,0,0,1,.2-.41l6.83-3.59a30.57,30.57,0,0,1,4.89-15l-3.26-7.69a.39.39,0,0,1,.1-.43l7.68-6.69a.36.36,0,0,1,.44,0L303.87,43a30.25,30.25,0,0,1,15.53-3.23l4.51-6.55a.38.38,0,0,1,.43-.14L334,36.28a.36.36,0,0,1,.26.35l0,8a30.35,30.35,0,0,1,10.56,11.88l7.85.56a.38.38,0,0,1,.34.29l2.15,9.95a.39.39,0,0,1-.18.41l-7,4.09A30.77,30.77,0,0,1,342.89,87l3.33,7a.37.37,0,0,1-.09.44l-7.59,6.78a.38.38,0,0,1-.44,0l-6.83-4a30.29,30.29,0,0,1-15.66,3.19L311.12,107A.38.38,0,0,1,310.81,107.17Zm-9.3-3.82,9.15,3,4.46-6.52a.34.34,0,0,1,.33-.16,29.59,29.59,0,0,0,15.66-3.19.41.41,0,0,1,.36,0l6.77,3.93L345.42,94l-3.3-6.91a.38.38,0,0,1,0-.37,29.76,29.76,0,0,0,3.58-7.29h0a29.76,29.76,0,0,0,1.48-7.85.4.4,0,0,1,.19-.31l6.94-4-2-9.42-7.78-.55a.38.38,0,0,1-.31-.21,29.56,29.56,0,0,0-10.56-11.88.37.37,0,0,1-.17-.32l0-8-9.14-3-4.47,6.49a.36.36,0,0,1-.34.16A29.58,29.58,0,0,0,304,43.76a.38.38,0,0,1-.37,0l-6.71-4.3-7.26,6.33,3.23,7.62a.36.36,0,0,1,0,.35,30,30,0,0,0-3.41,7,29.65,29.65,0,0,0-1.48,8,.39.39,0,0,1-.2.31L281,72.63l1.93,9.44,7.77.9a.35.35,0,0,1,.29.2,29.71,29.71,0,0,0,10.34,11.72.37.37,0,0,1,.17.31Zm16-16.28a16.94,16.94,0,0,1-5.36-.87h0a17.07,17.07,0,1,1,5.36.87Zm-5.13-1.58A16.35,16.35,0,0,0,333,75.13,16.32,16.32,0,1,0,312.4,85.49Z" fill="inherit"/></g></g></svg>